<?xml version="1.0" encoding="UTF-8" standalone="no"?>
<!DOCTYPE svg PUBLIC "-//W3C//DTD SVG 1.1//EN" "http://www.w3.org/Graphics/SVG/1.1/DTD/svg11.dtd">
<svg xmlns="http://www.w3.org/2000/svg" version="1.1" viewBox="0.00 0.00 239.00 173.00">
<g stroke-width="2.00" fill="none" stroke-linecap="butt">
<path stroke="#9d96a6" vector-effect="non-scaling-stroke" d="
  M 34.01 65.48
  L 24.75 65.50
  A 2.51 2.51 0.0 0 0 22.25 68.01
  L 22.25 112.50
  A 2.50 2.50 0.0 0 0 24.75 115.00
  L 45.25 115.00
  A 0.50 0.50 0.0 0 0 45.75 114.50
  L 45.75 65.80
  Q 45.75 65.42 45.37 65.43
  L 39.84 65.49"
/>
<path stroke="#755c97" vector-effect="non-scaling-stroke" d="
  M 39.84 65.49
  Q 39.50 50.41 39.86 44.68
  C 40.69 31.30 51.18 22.09 64.50 22.07
  Q 120.47 21.98 176.43 22.02
  Q 184.02 22.02 187.37 22.95
  C 208.10 28.70 204.99 49.42 205.00 65.59"
/>
<path stroke="#9d96a6" vector-effect="non-scaling-stroke" d="
  M 205.00 65.59
  L 198.82 65.59
  Q 198.28 65.59 198.28 66.13
  L 198.58 114.17
  Q 198.58 114.75 199.16 114.75
  L 219.25 114.75
  Q 222.00 114.75 222.00 112.00
  L 222.00 67.94
  A 2.20 2.20 0.0 0 0 219.85 65.74
  L 210.75 65.51"
/>
<path stroke="#755c97" vector-effect="non-scaling-stroke" d="
  M 210.75 65.51
  C 210.75 56.80 211.54 46.35 209.55 38.75
  Q 205.22 22.19 189.13 17.67
  Q 183.95 16.22 172.71 16.22
  Q 121.41 16.25 70.11 16.28
  C 58.80 16.28 51.18 17.17 43.48 24.31
  C 31.76 35.17 33.96 51.24 34.01 65.48"
/>
<path stroke="#d7c5f1" vector-effect="non-scaling-stroke" d="
  M 210.75 65.51
  L 205.00 65.59"
/>
<path stroke="#d7c5f1" vector-effect="non-scaling-stroke" d="
  M 39.84 65.49
  L 34.01 65.48"
/>
<path stroke="#9d96a6" vector-effect="non-scaling-stroke" d="
  M 190.99 46.41
  A 9.91 9.91 0.0 0 0 181.08 36.50
  L 63.66 36.50
  A 9.91 9.91 0.0 0 0 53.75 46.41
  L 53.75 132.09
  A 9.91 9.91 0.0 0 0 63.66 142.00
  L 181.08 142.00
  A 9.91 9.91 0.0 0 0 190.99 132.09
  L 190.99 46.41"
/>
<path stroke="#755c97" vector-effect="non-scaling-stroke" d="
  M 22.25 150.09
  C 22.84 156.88 28.28 163.99 35.81 163.99
  Q 119.10 164.01 202.38 164.00
  C 213.04 164.00 220.66 161.72 222.04 150.09
  Q 222.11 149.50 221.52 149.50
  L 22.79 149.50
  Q 22.20 149.50 22.25 150.09"
/>
<path stroke="#d7c5f1" vector-effect="non-scaling-stroke" d="
  M 178.25 49.26
  A 0.26 0.26 0.0 0 0 177.99 49.00
  L 65.75 49.00
  A 0.26 0.26 0.0 0 0 65.49 49.26
  L 65.49 129.24
  A 0.26 0.26 0.0 0 0 65.75 129.50
  L 177.99 129.50
  A 0.26 0.26 0.0 0 0 178.25 129.24
  L 178.25 49.26"
/>
<path stroke="#755c97" vector-effect="non-scaling-stroke" d="
  M 97.8173 75.0835
  A 6.40 6.40 0.0 0 0 91.4397 68.6612
  L 90.7797 68.6589
  A 6.40 6.40 0.0 0 0 84.3574 75.0366
  L 84.3027 90.7165
  A 6.40 6.40 0.0 0 0 90.6803 97.1388
  L 91.3403 97.1411
  A 6.40 6.40 0.0 0 0 97.7626 90.7634
  L 97.8173 75.0835"
/>
<path stroke="#755c97" vector-effect="non-scaling-stroke" d="
  M 160.38 74.98
  A 6.36 6.36 0.0 0 0 154.02 68.62
  L 153.42 68.62
  A 6.36 6.36 0.0 0 0 147.06 74.98
  L 147.06 90.92
  A 6.36 6.36 0.0 0 0 153.42 97.28
  L 154.02 97.28
  A 6.36 6.36 0.0 0 0 160.38 90.92
  L 160.38 74.98"
/>
<path stroke="#755c97" vector-effect="non-scaling-stroke" d="
  M 135.56 96.80
  C 133.04 112.61 112.64 112.56 110.52 96.75
  Q 110.45 96.25 109.94 96.25
  L 106.69 96.25
  Q 106.09 96.25 106.09 96.85
  C 106.14 104.20 111.78 110.64 118.56 112.43
  C 129.40 115.28 138.57 108.07 139.89 96.91
  Q 139.97 96.25 139.31 96.25
  L 136.20 96.25
  Q 135.64 96.25 135.56 96.80"
/>
</g>
<path fill="#3b2d4c" d="
  M 0.00 0.00
  L 239.00 0.00
  L 239.00 173.00
  L 0.00 173.00
  L 0.00 0.00
  Z
  M 34.01 65.48
  L 24.75 65.50
  A 2.51 2.51 0.0 0 0 22.25 68.01
  L 22.25 112.50
  A 2.50 2.50 0.0 0 0 24.75 115.00
  L 45.25 115.00
  A 0.50 0.50 0.0 0 0 45.75 114.50
  L 45.75 65.80
  Q 45.75 65.42 45.37 65.43
  L 39.84 65.49
  Q 39.50 50.41 39.86 44.68
  C 40.69 31.30 51.18 22.09 64.50 22.07
  Q 120.47 21.98 176.43 22.02
  Q 184.02 22.02 187.37 22.95
  C 208.10 28.70 204.99 49.42 205.00 65.59
  L 198.82 65.59
  Q 198.28 65.59 198.28 66.13
  L 198.58 114.17
  Q 198.58 114.75 199.16 114.75
  L 219.25 114.75
  Q 222.00 114.75 222.00 112.00
  L 222.00 67.94
  A 2.20 2.20 0.0 0 0 219.85 65.74
  L 210.75 65.51
  C 210.75 56.80 211.54 46.35 209.55 38.75
  Q 205.22 22.19 189.13 17.67
  Q 183.95 16.22 172.71 16.22
  Q 121.41 16.25 70.11 16.28
  C 58.80 16.28 51.18 17.17 43.48 24.31
  C 31.76 35.17 33.96 51.24 34.01 65.48
  Z
  M 190.99 46.41
  A 9.91 9.91 0.0 0 0 181.08 36.50
  L 63.66 36.50
  A 9.91 9.91 0.0 0 0 53.75 46.41
  L 53.75 132.09
  A 9.91 9.91 0.0 0 0 63.66 142.00
  L 181.08 142.00
  A 9.91 9.91 0.0 0 0 190.99 132.09
  L 190.99 46.41
  Z
  M 22.25 150.09
  C 22.84 156.88 28.28 163.99 35.81 163.99
  Q 119.10 164.01 202.38 164.00
  C 213.04 164.00 220.66 161.72 222.04 150.09
  Q 222.11 149.50 221.52 149.50
  L 22.79 149.50
  Q 22.20 149.50 22.25 150.09
  Z"
/>
<path fill="#af8ae2" d="
  M 210.75 65.51
  L 205.00 65.59
  C 204.99 49.42 208.10 28.70 187.37 22.95
  Q 184.02 22.02 176.43 22.02
  Q 120.47 21.98 64.50 22.07
  C 51.18 22.09 40.69 31.30 39.86 44.68
  Q 39.50 50.41 39.84 65.49
  L 34.01 65.48
  C 33.96 51.24 31.76 35.17 43.48 24.31
  C 51.18 17.17 58.80 16.28 70.11 16.28
  Q 121.41 16.25 172.71 16.22
  Q 183.95 16.22 189.13 17.67
  Q 205.22 22.19 209.55 38.75
  C 211.54 46.35 210.75 56.80 210.75 65.51
  Z"
/>
<path fill="#ffffff" d="
  M 190.99 132.09
  A 9.91 9.91 0.0 0 1 181.08 142.00
  L 63.66 142.00
  A 9.91 9.91 0.0 0 1 53.75 132.09
  L 53.75 46.41
  A 9.91 9.91 0.0 0 1 63.66 36.50
  L 181.08 36.50
  A 9.91 9.91 0.0 0 1 190.99 46.41
  L 190.99 132.09
  Z
  M 178.25 49.26
  A 0.26 0.26 0.0 0 0 177.99 49.00
  L 65.75 49.00
  A 0.26 0.26 0.0 0 0 65.49 49.26
  L 65.49 129.24
  A 0.26 0.26 0.0 0 0 65.75 129.50
  L 177.99 129.50
  A 0.26 0.26 0.0 0 0 178.25 129.24
  L 178.25 49.26
  Z"
/>
<path fill="#af8ae2" d="
  M 178.25 129.24
  A 0.26 0.26 0.0 0 1 177.99 129.50
  L 65.75 129.50
  A 0.26 0.26 0.0 0 1 65.49 129.24
  L 65.49 49.26
  A 0.26 0.26 0.0 0 1 65.75 49.00
  L 177.99 49.00
  A 0.26 0.26 0.0 0 1 178.25 49.26
  L 178.25 129.24
  Z
  M 97.8173 75.0835
  A 6.40 6.40 0.0 0 0 91.4397 68.6612
  L 90.7797 68.6589
  A 6.40 6.40 0.0 0 0 84.3574 75.0366
  L 84.3027 90.7165
  A 6.40 6.40 0.0 0 0 90.6803 97.1388
  L 91.3403 97.1411
  A 6.40 6.40 0.0 0 0 97.7626 90.7634
  L 97.8173 75.0835
  Z
  M 160.38 74.98
  A 6.36 6.36 0.0 0 0 154.02 68.62
  L 153.42 68.62
  A 6.36 6.36 0.0 0 0 147.06 74.98
  L 147.06 90.92
  A 6.36 6.36 0.0 0 0 153.42 97.28
  L 154.02 97.28
  A 6.36 6.36 0.0 0 0 160.38 90.92
  L 160.38 74.98
  Z
  M 135.56 96.80
  C 133.04 112.61 112.64 112.56 110.52 96.75
  Q 110.45 96.25 109.94 96.25
  L 106.69 96.25
  Q 106.09 96.25 106.09 96.85
  C 106.14 104.20 111.78 110.64 118.56 112.43
  C 129.40 115.28 138.57 108.07 139.89 96.91
  Q 139.97 96.25 139.31 96.25
  L 136.20 96.25
  Q 135.64 96.25 135.56 96.80
  Z"
/>
<path fill="#ffffff" d="
  M 34.01 65.48
  L 39.84 65.49
  L 45.37 65.43
  Q 45.75 65.42 45.75 65.80
  L 45.75 114.50
  A 0.50 0.50 0.0 0 1 45.25 115.00
  L 24.75 115.00
  A 2.50 2.50 0.0 0 1 22.25 112.50
  L 22.25 68.01
  A 2.51 2.51 0.0 0 1 24.75 65.50
  L 34.01 65.48
  Z"
/>
<path fill="#ffffff" d="
  M 205.00 65.59
  L 210.75 65.51
  L 219.85 65.74
  A 2.20 2.20 0.0 0 1 222.00 67.94
  L 222.00 112.00
  Q 222.00 114.75 219.25 114.75
  L 199.16 114.75
  Q 198.58 114.75 198.58 114.17
  L 198.28 66.13
  Q 198.28 65.59 198.82 65.59
  L 205.00 65.59
  Z"
/>
<rect fill="#3b2d4c" x="-6.73" y="-14.24" transform="translate(91.06,82.90) rotate(0.2)" width="13.46" height="28.48" rx="6.40"/>
<rect fill="#3b2d4c" x="147.06" y="68.62" width="13.32" height="28.66" rx="6.36"/>
<path fill="#3b2d4c" d="
  M 110.52 96.75
  C 112.64 112.56 133.04 112.61 135.56 96.80
  Q 135.64 96.25 136.20 96.25
  L 139.31 96.25
  Q 139.97 96.25 139.89 96.91
  C 138.57 108.07 129.40 115.28 118.56 112.43
  C 111.78 110.64 106.14 104.20 106.09 96.85
  Q 106.09 96.25 106.69 96.25
  L 109.94 96.25
  Q 110.45 96.25 110.52 96.75
  Z"
/>
<path fill="#af8ae2" d="
  M 35.81 163.99
  C 28.28 163.99 22.84 156.88 22.25 150.09
  Q 22.20 149.50 22.79 149.50
  L 221.52 149.50
  Q 222.11 149.50 222.04 150.09
  C 220.66 161.72 213.04 164.00 202.38 164.00
  Q 119.10 164.01 35.81 163.99
  Z"
/>
</svg>
